<svg width="48" height="48" viewBox="0 0 48 48" fill="none" xmlns="http://www.w3.org/2000/svg">
<rect width="48" height="48" rx="8" fill="black"/>
<path d="M6 22.5V6H22.5V22.5H6ZM9 19.5H19.5V9H9V19.5ZM6 42V25.5H22.5V42H6ZM9 39H19.5V28.5H9V39ZM25.5 22.5V6H42V22.5H25.5ZM28.5 19.5H39V9H28.5V19.5ZM37.9 42V37.9H42V42H37.9ZM25.5 29.65V25.5H29.6V29.65H25.5ZM29.6 33.75V29.65H33.75V33.75H29.6ZM25.5 37.9V33.75H29.6V37.9H25.5ZM29.6 42V37.9H33.75V42H29.6ZM33.75 37.9V33.75H37.9V37.9H33.75ZM33.75 29.65V25.5H37.9V29.65H33.75ZM37.9 33.75V29.65H42V33.75H37.9Z" fill="white"/>
</svg>
